<?xml version="1.0" standalone="no"?>
<!DOCTYPE svg PUBLIC "-//W3C//DTD SVG 20010904//EN"
 "http://www.w3.org/TR/2001/REC-SVG-20010904/DTD/svg10.dtd">
<svg version="1.0" xmlns="http://www.w3.org/2000/svg"
 width="512.000000pt" height="512.000000pt" viewBox="0 0 512.000000 512.000000"
 preserveAspectRatio="xMidYMid meet">

<g transform="translate(0.000000,512.000000) scale(0.100000,-0.100000)"
fill="#000000" stroke="none">
<path d="M2965 5104 c-87 -19 -202 -68 -277 -118 -32 -20 -91 -74 -133 -118
-132 -140 -205 -325 -205 -518 0 -317 195 -679 602 -1121 189 -205 643 -610
734 -656 54 -27 89 -12 219 93 587 473 1017 986 1158 1381 89 247 70 486 -52
693 -257 432 -853 509 -1208 155 l-73 -72 -35 42 c-74 91 -245 194 -380 231
-87 23 -264 27 -350 8z m255 -208 c175 -32 322 -141 401 -298 34 -68 60 -88
114 -88 52 1 75 20 116 100 20 38 61 92 99 130 111 111 239 164 395 164 191
-1 361 -90 464 -244 229 -344 50 -781 -579 -1411 -172 -172 -255 -247 -481
-436 -14 -11 -30 -1 -124 77 -462 385 -816 791 -970 1113 -92 192 -114 328
-77 475 27 107 70 181 152 263 87 88 192 141 314 159 75 11 94 11 176 -4z"/>
<path d="M53 4678 c-57 -28 -67 -122 -17 -169 25 -24 30 -24 257 -29 221 -5
234 -7 282 -30 65 -32 124 -92 152 -155 14 -32 112 -502 273 -1311 137 -694
250 -1264 250 -1268 0 -3 -67 -6 -150 -6 -219 0 -288 -20 -372 -107 -59 -60
-83 -124 -83 -218 0 -67 4 -89 28 -137 30 -62 83 -115 149 -150 l43 -23 1883
-3 1883 -2 30 29 c48 49 34 142 -26 169 -20 9 -460 12 -1861 12 -2038 0 -1880
-5 -1910 67 -19 43 -5 93 33 123 26 20 37 20 1650 20 1798 0 1675 -5 1706 63
8 18 58 254 112 526 l99 494 -20 36 c-25 48 -85 71 -129 50 -56 -28 -61 -45
-153 -504 l-88 -440 -1300 -3 -1299 -2 -189 947 c-104 522 -191 954 -194 961
-3 9 99 12 488 12 l492 0 29 29 c31 32 38 79 18 124 -24 52 -16 52 -564 57
l-509 5 -48 240 c-39 197 -54 253 -84 314 -65 132 -196 238 -339 276 -70 18
-485 21 -522 3z"/>
<path d="M1570 830 c-165 -61 -273 -200 -287 -371 -11 -124 38 -250 132 -338
213 -201 547 -140 676 124 32 67 34 75 34 180 0 103 -2 114 -32 177 -44 93
-109 160 -201 205 -68 34 -83 38 -171 40 -77 3 -107 -1 -151 -17z m204 -202
c81 -25 146 -118 146 -210 0 -51 -46 -135 -91 -165 -92 -61 -192 -51 -269 27
-106 105 -81 268 51 334 58 29 101 32 163 14z"/>
<path d="M3490 830 c-165 -61 -273 -200 -287 -371 -11 -124 38 -250 132 -338
213 -201 547 -140 676 124 32 67 34 75 34 180 0 103 -2 114 -32 177 -44 93
-109 160 -201 205 -68 34 -83 38 -171 40 -77 3 -107 -1 -151 -17z m204 -202
c81 -25 146 -118 146 -210 0 -51 -46 -135 -91 -165 -92 -61 -192 -51 -269 27
-106 105 -81 268 51 334 58 29 101 32 163 14z"/>
</g>
</svg>
