<?xml version="1.0" standalone="no"?>
<!DOCTYPE svg PUBLIC "-//W3C//DTD SVG 20010904//EN"
 "http://www.w3.org/TR/2001/REC-SVG-20010904/DTD/svg10.dtd">
<svg version="1.0" xmlns="http://www.w3.org/2000/svg"
 width="1405.000000pt" height="220.000000pt" viewBox="0 0 1405.000000 220.000000"
 preserveAspectRatio="xMidYMid meet">

<g transform="translate(0.000000,220.000000) scale(0.100000,-0.100000)"
fill="#000000" stroke="none">
<path d="M5030 1734 l0 -467 -26 39 c-84 125 -231 209 -399 228 -252 29 -521
-169 -574 -422 -39 -188 12 -357 149 -494 92 -93 184 -141 299 -159 182 -27
388 52 501 193 l45 57 3 -115 3 -114 39 0 40 0 0 860 0 860 -40 0 -40 0 0
-466z m-346 -279 c80 -21 140 -58 212 -131 233 -235 166 -611 -134 -761 -77
-38 -77 -38 -202 -38 -123 0 -126 1 -195 35 -189 94 -299 299 -268 499 28 183
172 350 342 397 64 17 176 17 245 -1z"/>
<path d="M317 1530 c-62 -16 -138 -59 -194 -112 l-53 -51 0 72 0 71 -35 0 -35
0 0 -515 0 -515 35 0 35 0 0 338 c0 196 4 363 11 398 27 152 163 261 316 252
88 -5 154 -38 210 -106 70 -86 73 -105 73 -519 l0 -363 34 0 34 0 4 373 3 372
26 55 c31 65 96 132 159 163 36 18 62 22 130 22 101 0 143 -18 207 -88 81 -88
78 -64 81 -504 l3 -393 40 0 40 0 -3 388 c-3 376 -4 389 -26 444 -28 70 -94
145 -159 180 -177 96 -431 22 -514 -149 l-21 -44 -28 48 c-35 60 -118 139
-173 163 -51 23 -149 32 -200 20z"/>
<path d="M3228 1524 c-106 -25 -175 -71 -242 -159 l-36 -47 0 96 0 96 -40 0
-40 0 0 -515 0 -515 40 0 40 0 0 333 c0 358 3 384 56 468 25 41 115 124 157
145 114 60 270 57 372 -6 52 -32 124 -116 151 -175 37 -81 44 -149 44 -472 l0
-293 35 0 35 0 0 319 c0 175 -5 343 -10 372 -47 252 -307 415 -562 353z"/>
<path d="M5770 1529 c-153 -25 -316 -152 -392 -306 -40 -81 -42 -88 -46 -198
-5 -137 14 -215 78 -314 132 -205 348 -296 581 -247 101 22 184 69 265 150 81
81 126 164 149 271 39 188 -10 350 -150 491 -131 132 -295 183 -485 153z m225
-75 c152 -39 285 -171 330 -328 13 -43 16 -85 13 -160 -3 -88 -8 -110 -36
-169 -45 -96 -134 -187 -231 -235 -74 -37 -77 -37 -196 -37 -120 0 -122 0
-199 39 -247 121 -344 398 -225 642 30 63 129 167 193 204 102 58 234 75 351
44z"/>
<path d="M6945 1526 c-69 -20 -142 -63 -192 -113 l-43 -42 0 69 0 70 -35 0
-35 0 0 -515 0 -515 35 0 34 0 3 378 c3 369 3 378 26 428 27 60 89 123 152
155 61 32 164 38 228 13 63 -24 144 -102 173 -167 24 -51 24 -58 27 -429 l3
-378 34 0 34 0 3 378 3 377 28 57 c50 101 148 168 258 176 122 9 222 -47 284
-159 l30 -54 3 -387 3 -388 35 0 35 0 -3 398 -3 397 -27 57 c-29 63 -100 139
-158 168 -60 30 -149 42 -227 30 -129 -21 -218 -79 -270 -175 l-30 -57 -30 54
c-78 138 -241 212 -378 174z"/>
<path d="M8745 1530 c-198 -36 -375 -193 -431 -385 -24 -80 -24 -220 0 -300
58 -196 242 -355 444 -386 201 -30 420 67 523 231 l29 45 0 -127 0 -128 35 0
35 0 0 515 0 515 -35 0 -35 0 0 -127 0 -127 -30 48 c-57 89 -169 173 -276 206
-76 23 -191 32 -259 20z m219 -75 c152 -40 290 -180 332 -339 20 -74 18 -193
-5 -265 -38 -123 -136 -233 -259 -293 -59 -28 -79 -33 -167 -36 -116 -5 -193
16 -281 74 -211 140 -278 420 -151 636 33 56 141 159 197 188 98 50 225 63
334 35z"/>
<path d="M10007 1525 c-105 -27 -184 -82 -242 -168 l-35 -52 0 103 0 102 -35
0 -35 0 0 -515 0 -515 34 0 35 0 3 343 3 342 31 65 c70 148 211 240 369 240
157 0 307 -113 355 -267 18 -60 20 -93 20 -394 l0 -329 40 0 40 0 0 293 c0
160 -5 326 -10 366 -23 175 -147 327 -308 377 -71 22 -197 26 -265 9z"/>
<path d="M12565 1530 c-156 -28 -306 -136 -388 -280 -67 -118 -81 -295 -35
-427 108 -304 461 -455 745 -319 78 38 173 120 214 186 l29 45 0 -127 0 -128
35 0 35 0 0 515 0 515 -35 0 -35 0 0 -127 0 -127 -31 49 c-82 130 -240 218
-411 229 -40 3 -95 1 -123 -4z m219 -75 c125 -33 237 -129 301 -257 34 -69 38
-88 43 -173 4 -73 1 -111 -13 -161 -34 -125 -135 -243 -263 -306 -58 -29 -77
-33 -166 -36 -84 -3 -112 0 -165 18 -131 44 -228 131 -290 260 -31 65 -36 86
-39 166 -7 150 28 241 133 352 67 72 137 116 214 138 64 17 176 17 245 -1z"/>
<path d="M13616 1520 c-89 -35 -136 -98 -136 -182 1 -98 75 -182 256 -290 130
-77 186 -124 214 -182 28 -59 29 -149 1 -204 -41 -81 -147 -142 -246 -142
-133 0 -201 40 -282 166 -10 16 -12 11 -12 -34 -1 -48 3 -56 39 -96 127 -138
373 -135 506 6 54 57 69 83 84 147 37 157 -37 272 -266 408 -144 86 -199 132
-214 179 -30 91 39 174 145 174 59 0 103 -19 149 -64 l36 -37 0 45 c0 37 -5
48 -30 70 -34 28 -117 56 -164 56 -17 -1 -53 -10 -80 -20z"/>
<path d="M11190 1511 c-146 -47 -262 -148 -330 -287 -107 -217 -55 -470 129
-635 136 -122 316 -165 495 -119 129 33 239 107 305 207 l31 46 0 -119 c0 -70
-6 -145 -15 -182 -46 -193 -178 -320 -366 -352 -100 -17 -191 -1 -305 55 -76
37 -103 57 -158 116 l-66 71 0 -46 c0 -43 5 -52 50 -100 89 -94 227 -153 380
-163 262 -16 470 136 535 392 12 49 15 147 15 587 l0 528 -35 0 -35 0 0 -127
-1 -128 -21 40 c-48 92 -181 188 -303 220 -81 21 -234 19 -305 -4z m262 -52
c134 -29 257 -128 324 -263 33 -67 37 -86 42 -171 4 -73 1 -111 -13 -161 -33
-123 -135 -246 -254 -306 -65 -32 -69 -33 -196 -33 -126 0 -132 1 -196 32
-250 122 -351 414 -228 655 29 56 134 164 194 198 93 53 218 72 327 49z"/>
<path d="M1690 1191 c0 -175 5 -343 10 -372 33 -177 179 -322 359 -360 81 -17
214 1 297 40 65 31 141 99 172 155 l17 31 3 -102 3 -103 34 0 35 0 0 515 0
515 -35 0 -35 0 0 -292 c0 -161 -5 -322 -10 -357 -18 -125 -107 -245 -226
-306 -55 -28 -66 -30 -169 -30 -100 0 -115 2 -160 27 -114 60 -199 184 -216
314 -4 38 -8 198 -9 357 l0 287 -35 0 -35 0 0 -319z"/>
</g>
</svg>
