<?xml version="1.0" standalone="no"?>
<!DOCTYPE svg PUBLIC "-//W3C//DTD SVG 20010904//EN"
 "http://www.w3.org/TR/2001/REC-SVG-20010904/DTD/svg10.dtd">
<svg version="1.0" xmlns="http://www.w3.org/2000/svg"
 width="512.000000pt" height="512.000000pt" viewBox="0 0 512.000000 512.000000"
 preserveAspectRatio="xMidYMid meet">

<g transform="translate(0.000000,512.000000) scale(0.100000,-0.100000)"
fill="#000000" stroke="none">
<path d="M1450 4366 c-694 -310 -981 -443 -997 -461 l-23 -26 0 -1214 0 -1214
22 -25 c31 -34 1949 -887 1998 -889 43 -1 283 103 320 139 19 19 25 35 25 70
0 39 -5 50 -33 75 -45 40 -78 38 -203 -17 l-107 -47 -906 403 -906 403 0 1054
c0 579 3 1053 6 1053 4 0 407 -178 897 -396 718 -319 897 -395 922 -391 17 3
422 179 900 392 479 213 878 390 888 392 16 5 17 -30 17 -627 l0 -632 29 -29
c51 -50 137 -36 170 28 8 15 11 231 11 740 0 685 -1 719 -19 749 -17 27 -126
78 -992 464 -536 238 -990 434 -1009 436 -29 3 -204 -71 -1010 -430z m1632
-77 c-8 -8 -1610 -720 -1634 -726 -16 -5 -638 266 -638 277 0 3 370 170 822
371 l822 365 317 -140 c175 -78 314 -144 311 -147z m650 -281 c203 -90 368
-165 368 -168 0 -3 -370 -169 -823 -371 l-823 -365 -372 165 c-205 91 -372
168 -372 171 1 7 1621 728 1640 729 8 1 180 -72 382 -161z"/>
<path d="M3180 2659 c-338 -52 -611 -300 -702 -638 -29 -109 -29 -305 1 -416
107 -400 470 -665 876 -642 154 9 303 58 421 139 l52 35 338 -339 c187 -187
351 -346 366 -354 99 -52 196 45 144 144 -8 15 -167 179 -354 366 l-339 338
35 52 c81 118 130 267 139 421 20 346 -173 671 -488 820 -143 67 -338 97 -489
74z m275 -224 c33 -8 96 -33 140 -55 286 -140 422 -480 312 -782 -36 -100 -73
-156 -156 -238 -129 -128 -262 -182 -446 -182 -92 -1 -123 4 -191 26 -160 52
-296 167 -373 315 -50 98 -71 185 -71 297 0 290 193 541 474 614 88 23 230 25
311 5z"/>
</g>
</svg>
