<?xml version="1.0" standalone="no"?>
<!DOCTYPE svg PUBLIC "-//W3C//DTD SVG 20010904//EN"
 "http://www.w3.org/TR/2001/REC-SVG-20010904/DTD/svg10.dtd">
<svg version="1.0" xmlns="http://www.w3.org/2000/svg"
 width="512.000000pt" height="512.000000pt" viewBox="0 0 512.000000 512.000000"
 preserveAspectRatio="xMidYMid meet">

<g transform="translate(0.000000,512.000000) scale(0.100000,-0.100000)"
fill="#000000" stroke="none">
<path d="M2315 5109 c-473 -48 -916 -222 -1302 -510 -126 -94 -398 -366 -492
-492 -272 -365 -437 -767 -503 -1232 -17 -118 -17 -512 0 -630 71 -498 263
-942 565 -1308 238 -287 517 -508 852 -672 338 -167 659 -247 1035 -262 890
-33 1730 402 2232 1157 134 203 265 494 331 740 106 391 114 822 21 1235 -81
361 -275 754 -517 1048 -238 287 -517 508 -852 673 -252 123 -481 195 -765
239 -125 19 -477 28 -605 14z m585 -174 c250 -37 490 -112 720 -226 484 -240
848 -605 1089 -1089 171 -345 245 -664 245 -1060 0 -386 -69 -695 -230 -1029
-102 -212 -231 -409 -357 -546 l-46 -50 -11 33 c-55 152 -168 329 -299 465
-278 289 -636 463 -1096 533 -166 25 -542 26 -705 1 -344 -53 -607 -151 -854
-320 -114 -78 -279 -236 -362 -347 -60 -80 -155 -252 -183 -330 l-12 -35 -46
50 c-66 71 -182 229 -241 327 -404 668 -461 1480 -156 2193 239 560 698 1019
1259 1260 198 84 448 152 645 174 52 6 111 13 130 15 73 9 409 -4 510 -19z"/>
<path d="M2411 4189 c-93 -16 -233 -68 -316 -117 -107 -63 -254 -210 -317
-317 -106 -179 -150 -406 -117 -605 16 -101 65 -237 117 -325 60 -103 210
-254 307 -311 361 -211 794 -167 1092 110 126 117 218 271 265 441 31 115 31
335 0 450 -89 326 -324 561 -653 655 -85 25 -291 35 -378 19z"/>
</g>
</svg>
